<mxfile host="app.diagrams.net" agent="Mozilla/5.0 (Windows NT 10.0; Win64; x64) AppleWebKit/537.36 (KHTML, like Gecko) Chrome/129.0.0.0 Safari/537.36" version="24.7.17">
  <diagram name="Page-1" id="D0JsHQ4YXtNWg4Yk6zB2">
    <mxGraphModel dx="690" dy="402" grid="1" gridSize="10" guides="1" tooltips="1" connect="1" arrows="1" fold="1" page="1" pageScale="1" pageWidth="850" pageHeight="1100" math="0" shadow="0">
      <root>
        <mxCell id="0" />
        <mxCell id="1" parent="0" />
        <mxCell id="vkyqPre0zpjpMaQzLrcU-8" value="" style="edgeStyle=orthogonalEdgeStyle;rounded=0;orthogonalLoop=1;jettySize=auto;html=1;entryX=0.5;entryY=1;entryDx=0;entryDy=0;shape=link;" edge="1" parent="1" source="vkyqPre0zpjpMaQzLrcU-9" target="vkyqPre0zpjpMaQzLrcU-3">
          <mxGeometry relative="1" as="geometry">
            <mxPoint x="380.5999999999999" y="308.68499999999995" as="targetPoint" />
          </mxGeometry>
        </mxCell>
        <mxCell id="vkyqPre0zpjpMaQzLrcU-1" value="" style="image;points=[];aspect=fixed;html=1;align=center;shadow=0;dashed=0;image=img/lib/allied_telesis/computer_and_terminals/Personal_Computer.svg;" vertex="1" parent="1">
          <mxGeometry x="360.6" y="515.79" width="40" height="54.21" as="geometry" />
        </mxCell>
        <mxCell id="vkyqPre0zpjpMaQzLrcU-2" value="Windows 10 Client&lt;br&gt;Wazuh Agent" style="text;strokeColor=none;align=center;fillColor=none;html=1;verticalAlign=middle;whiteSpace=wrap;rounded=0;" vertex="1" parent="1">
          <mxGeometry x="320.6" y="570" width="120" height="30" as="geometry" />
        </mxCell>
        <mxCell id="vkyqPre0zpjpMaQzLrcU-11" style="rounded=0;orthogonalLoop=1;jettySize=auto;html=1;entryX=0.5;entryY=1;entryDx=0;entryDy=0;shape=link;" edge="1" parent="1" source="vkyqPre0zpjpMaQzLrcU-3" target="vkyqPre0zpjpMaQzLrcU-4">
          <mxGeometry relative="1" as="geometry" />
        </mxCell>
        <mxCell id="vkyqPre0zpjpMaQzLrcU-19" value="2. Receive Events" style="edgeLabel;html=1;align=center;verticalAlign=middle;resizable=0;points=[];" vertex="1" connectable="0" parent="vkyqPre0zpjpMaQzLrcU-11">
          <mxGeometry x="0.0391" y="-1" relative="1" as="geometry">
            <mxPoint as="offset" />
          </mxGeometry>
        </mxCell>
        <mxCell id="vkyqPre0zpjpMaQzLrcU-3" value="" style="image;aspect=fixed;perimeter=ellipsePerimeter;html=1;align=center;shadow=0;dashed=0;spacingTop=3;image=img/lib/active_directory/internet_cloud.svg;" vertex="1" parent="1">
          <mxGeometry x="355.6" y="230" width="50" height="31.5" as="geometry" />
        </mxCell>
        <mxCell id="vkyqPre0zpjpMaQzLrcU-4" value="" style="image;aspect=fixed;perimeter=ellipsePerimeter;html=1;align=center;shadow=0;dashed=0;spacingTop=3;image=img/lib/active_directory/internet_cloud.svg;" vertex="1" parent="1">
          <mxGeometry x="120" y="120" width="50" height="31.5" as="geometry" />
        </mxCell>
        <mxCell id="vkyqPre0zpjpMaQzLrcU-5" value="" style="image;aspect=fixed;perimeter=ellipsePerimeter;html=1;align=center;shadow=0;dashed=0;spacingTop=3;image=img/lib/active_directory/internet_cloud.svg;" vertex="1" parent="1">
          <mxGeometry x="355.6" y="20" width="50" height="31.5" as="geometry" />
        </mxCell>
        <mxCell id="vkyqPre0zpjpMaQzLrcU-6" value="" style="image;aspect=fixed;perimeter=ellipsePerimeter;html=1;align=center;shadow=0;dashed=0;spacingTop=3;image=img/lib/active_directory/internet_cloud.svg;" vertex="1" parent="1">
          <mxGeometry x="560" y="140" width="50" height="31.5" as="geometry" />
        </mxCell>
        <mxCell id="vkyqPre0zpjpMaQzLrcU-10" value="" style="edgeStyle=orthogonalEdgeStyle;rounded=0;orthogonalLoop=1;jettySize=auto;html=1;entryX=0.5;entryY=1;entryDx=0;entryDy=0;shape=link;" edge="1" parent="1" source="vkyqPre0zpjpMaQzLrcU-1" target="vkyqPre0zpjpMaQzLrcU-9">
          <mxGeometry relative="1" as="geometry">
            <mxPoint x="381" y="516" as="sourcePoint" />
            <mxPoint x="381" y="262" as="targetPoint" />
          </mxGeometry>
        </mxCell>
        <mxCell id="vkyqPre0zpjpMaQzLrcU-16" value="1. Send Events" style="edgeLabel;html=1;align=center;verticalAlign=middle;resizable=0;points=[];" vertex="1" connectable="0" parent="vkyqPre0zpjpMaQzLrcU-10">
          <mxGeometry x="-0.018" relative="1" as="geometry">
            <mxPoint as="offset" />
          </mxGeometry>
        </mxCell>
        <mxCell id="vkyqPre0zpjpMaQzLrcU-9" value="" style="sketch=0;points=[[0.5,0,0],[1,0.5,0],[0.5,1,0],[0,0.5,0],[0.145,0.145,0],[0.8555,0.145,0],[0.855,0.8555,0],[0.145,0.855,0]];verticalLabelPosition=bottom;html=1;verticalAlign=top;aspect=fixed;align=center;pointerEvents=1;shape=mxgraph.cisco19.rect;prIcon=router;fillColor=#FAFAFA;strokeColor=#005073;" vertex="1" parent="1">
          <mxGeometry x="355.6" y="340" width="50" height="50" as="geometry" />
        </mxCell>
        <mxCell id="vkyqPre0zpjpMaQzLrcU-12" value="Router" style="text;strokeColor=none;align=center;fillColor=none;html=1;verticalAlign=middle;whiteSpace=wrap;rounded=0;" vertex="1" parent="1">
          <mxGeometry x="295.6" y="350" width="60" height="30" as="geometry" />
        </mxCell>
        <mxCell id="vkyqPre0zpjpMaQzLrcU-13" value="" style="image;points=[];aspect=fixed;html=1;align=center;shadow=0;dashed=0;image=img/lib/allied_telesis/computer_and_terminals/Personal_Computer.svg;" vertex="1" parent="1">
          <mxGeometry x="560" y="515.79" width="40" height="54.21" as="geometry" />
        </mxCell>
        <mxCell id="vkyqPre0zpjpMaQzLrcU-14" value="Internet" style="text;strokeColor=none;align=center;fillColor=none;html=1;verticalAlign=middle;whiteSpace=wrap;rounded=0;" vertex="1" parent="1">
          <mxGeometry x="390" y="250" width="60" height="30" as="geometry" />
        </mxCell>
        <mxCell id="vkyqPre0zpjpMaQzLrcU-15" value="Wazuh Manager" style="text;strokeColor=none;align=center;fillColor=none;html=1;verticalAlign=middle;whiteSpace=wrap;rounded=0;" vertex="1" parent="1">
          <mxGeometry x="60" y="121.5" width="60" height="30" as="geometry" />
        </mxCell>
      </root>
    </mxGraphModel>
  </diagram>
</mxfile>
